<svg preserveAspectRatio="xMidYMid meet" width="100%" height="100%" overflow="visible" style="display: block;" viewBox="0 0 278 119" fill="none" xmlns="http://www.w3.org/2000/svg">
<g id="Illustration_M/Turn_On_Notifications_Light_SVG">
<path id="primary_fill" d="M104.951 49.1894C104.035 49.8593 114.81 82.0466 120.311 98.0566C141.124 92.0411 182.973 79.6635 183.87 78.2761C184.992 76.5419 180.344 32.4214 178.445 31.8427C176.545 31.2639 106.096 48.3519 104.951 49.1894Z" fill="var(--fill-0, #49C2BF)"/>
<g id="tertiary_fill">
<path d="M91.6328 53.114C93.5272 52.3807 97.3159 50.5841 97.3159 49.2642C97.3159 47.6142 92.3661 34.6897 89.2495 34.4147C86.133 34.1397 68.5336 43.3977 67.8003 44.956C67.067 46.5143 76.325 60.8138 78.4332 61.0888C80.1199 61.3088 85.308 58.0639 87.6913 56.414C89.6467 57.1931 93.6494 58.0639 97.8659 56.7807C95.0793 56.4873 92.5494 54.214 91.6328 53.114Z" fill="var(--fill-0, #DFC00C)"/>
<path d="M90.5193 83.6683L88.7068 77.5433L91.7753 76.6353L93.5878 82.7603L90.5193 83.6683Z" fill="var(--fill-0, #DFC00C)"/>
<path d="M100.676 85.5962L94.989 86.7212L94.368 83.582L100.056 82.457L100.676 85.5962Z" fill="var(--fill-0, #DFC00C)"/>
<path d="M90.5187 87.682L85.9562 88.1195L85.6508 84.9341L90.2133 84.4966L90.5187 87.682Z" fill="var(--fill-0, #DFC00C)"/>
<path d="M91.3508 88.1685L92.1008 92.606L95.2561 92.0728L94.5061 87.6353L91.3508 88.1685Z" fill="var(--fill-0, #DFC00C)"/>
</g>
<g id="stroke">
<path d="M153.825 61.3682L176.54 39.1544L174.001 36.5583L152.785 57.3056L117.184 47.3236L116.203 50.8199L153.825 61.3682Z" fill="var(--fill-0, #826FF6)"/>
<path fill-rule="evenodd" clip-rule="evenodd" d="M170.06 26.1276C149.851 30.6264 129.431 34.9529 109.564 40.8176C107.357 41.4691 107.039 42.9342 107.484 44.929C111.2 61.5806 117.758 77.8926 123.289 93.9891C144.537 87.8478 167.823 82.3415 187.655 72.2864C189.429 71.3871 189.479 69.6742 189.467 67.8559C189.38 54.429 188.286 40.2546 185.145 27.1446C183.588 20.646 174.544 25.1295 170.06 26.1276ZM111.036 44.1717C130.748 38.5531 150.849 34.1243 170.849 29.672C172.341 29.3399 181.299 26.6774 181.614 27.9906C184.69 40.8283 185.75 54.7311 185.836 67.8795C185.839 68.4056 185.831 68.8274 185.814 69.1457C166.942 78.2039 145.606 83.6537 125.6 89.5372C120.5 74.6456 114.494 59.5632 111.036 44.1717Z" fill="var(--fill-0, #826FF6)"/>
</g>
<path id="secondary_fill" d="M175.14 37.8377C181.734 39.0896 189.119 34.9526 190.371 28.3578C191.623 21.763 187.738 15.8403 181.144 14.5884C174.549 13.3365 166.717 17.0352 165.465 23.63C164.214 30.2248 168.545 36.5858 175.14 37.8377Z" fill="var(--fill-0, #D4555E)"/>
<g id="symbol_fill">
<path d="M88.1496 45.0936L76.7375 43.6729L82.2832 53.6183L88.1496 45.0936Z" fill="var(--fill-0, #E3E3E3)"/>
<path d="M174.944 24.7419L177.202 22.8829L176.352 30.3326C174.886 30.2653 173.728 30.2194 173.49 30.2193L173.498 33.4194C176.416 33.466 179.346 33.6577 182.257 33.8532L182.472 30.6604C181.671 30.6067 180.637 30.5474 179.555 30.4903L180.829 19.313L178.222 17.8967L172.91 22.2717L174.944 24.7419Z" fill="var(--fill-0, #E3E3E3)"/>
</g>
</g>
</svg>
