<svg preserveAspectRatio="none" width="312" height="112" overflow="visible" style="display: block;" viewBox="0 0 312 112" fill="none" xmlns="http://www.w3.org/2000/svg">
<g id="Search">
<path id="secondary_fill" d="M216.666 40.0143C216.185 36.3877 210.739 34.2513 204.918 33.5594C189.3 31.7028 173.649 29.8795 157.974 28.5604C152.987 28.1407 150.439 28.7835 148.704 33.5594C144.007 46.4845 139.707 83.392 140.132 86.8332C140.628 90.8475 146.029 92.2389 151.063 93.1436C156.098 94.0484 195.215 98.1312 200.242 98.1692C205.269 98.2072 206.528 95.5766 207.42 93.1436C209.358 87.9432 217.978 49.8373 216.666 40.0143Z" fill="var(--fill-0, #FF727B)"/>
<path id="primary_fill" d="M144.778 46.9735C137.5 39.9974 121.599 42.9733 115.823 48.755C110.047 54.5366 106.87 63.7094 114.29 74.5174C114.29 74.5174 96.0341 92.8856 96.8145 95.7372C97.643 98.7999 103.269 104.141 104.829 103.629C107.899 102.672 120.708 83.7339 121.982 82.0062C129.136 85.7406 139.796 84.5839 145.379 78.6333C153.006 70.504 153.067 54.9189 144.778 46.9735ZM123.976 71.0445C119.246 67.7277 119.274 62.2427 121.376 56.4804C125.173 48.755 134.584 50.2353 138.921 53.9451C144.079 58.3569 142.814 66.0657 138.921 70.3269C134.903 74.7251 128.706 74.3612 123.976 71.0445Z" fill="var(--fill-0, #6DE7E3)"/>
<g id="tertiary_fill">
<path d="M130.507 7.24915L132.751 6.19824L137.864 17.0428L135.62 18.0937L130.507 7.24915Z" fill="var(--fill-0, #FFDD2A)"/>
<path d="M114.286 14.5636L112.424 16.1944L120.736 25.6246L122.599 23.9938L114.286 14.5636Z" fill="var(--fill-0, #FFDD2A)"/>
<path d="M99.7657 28.9736L99.1082 31.3561L114.37 35.5402L115.027 33.1578L99.7657 28.9736Z" fill="var(--fill-0, #FFDD2A)"/>
</g>
<g id="stroke">
<path fill-rule="evenodd" clip-rule="evenodd" d="M138.62 71.5018C146.07 66.1093 145.864 54.1422 138.504 48.7954C133.635 45.2573 126.002 45.2986 121.096 48.7954C113.956 53.8836 114.007 64.2445 120.134 69.9146C125.088 74.4985 132.999 75.5708 138.62 71.5018ZM137.487 69.5818C131.278 73.4244 125.287 71.2449 121.825 68.198C116.629 63.6243 116.903 54.7589 122.887 50.7964C127.022 48.058 132.912 47.8609 137.028 50.7964C142.659 54.8123 143.877 65.6207 137.487 69.5818Z" fill="var(--fill-0, #6633F5)"/>
<path fill-rule="evenodd" clip-rule="evenodd" d="M94.167 92.6339C94.6475 93.6755 99.3084 99.8719 101.971 99.8719H102.016C102.44 99.8408 103.025 99.524 103.728 98.9899C108.692 95.2151 119.514 80.5849 120.53 79.2527C127.208 82.1563 136.973 82.018 143.404 77.3216C154.053 69.5445 153.186 50.7828 143.404 42.3481C135.875 35.8555 123.195 36.7038 115.622 43.1084C106.265 51.0217 106.825 65.7833 111.422 71.2772C108.905 74.2424 98.0955 84.2554 94.8306 89.395C93.9458 90.7788 93.8466 91.9268 94.167 92.6339ZM114.427 71.6194C109.018 62.8881 109.127 52.0381 117.547 45.0091C124.176 39.4753 135.151 38.4295 141.697 44.2488C150.288 51.8854 151.208 68.1747 141.954 75.3798C136.341 79.7496 125.719 80.2498 119.752 76.1659C119.752 76.1659 103.908 96.8231 101.932 97.3857C101.055 97.0588 97.3708 93.3562 96.4783 91.7367C95.7918 90.4746 114.427 71.6194 114.427 71.6194Z" fill="var(--fill-0, #6633F5)"/>
</g>
<path id="symbol_fill" d="M194.208 52.5552C189.539 51.0453 186.514 47.611 187.431 42.7963L180.03 41.8159C179.55 45.7182 175.401 65.9345 175.401 65.9345C175.401 65.9345 162.807 60.8532 160.795 71.426C158.728 82.4041 178.633 86.777 180.919 75.5461C181.465 72.8677 185.139 54.721 185.139 54.721C185.139 54.721 188.385 59.2064 192.748 58.995C192.748 58.995 193.254 54.4007 194.208 52.5552Z" fill="var(--fill-0, white)"/>
</g>
</svg>
