<svg preserveAspectRatio="none" width="312" height="112" overflow="visible" style="display: block;" viewBox="0 0 312 112" fill="none" xmlns="http://www.w3.org/2000/svg">
<g id="Inbox">
<path id="primary_fill" d="M131.004 46.2961C130.142 46.9266 140.283 77.2206 145.461 92.2887C165.049 86.6272 204.437 74.9776 205.281 73.6718C206.337 72.0396 201.963 30.5145 200.175 29.9698C198.387 29.4251 132.082 45.5079 131.004 46.2961Z" fill="var(--fill-0, #6DE7E3)"/>
<g id="tertiary_fill">
<path d="M118.469 49.9898C120.252 49.2996 123.818 47.6087 123.818 46.3664C123.818 44.8135 119.16 32.6492 116.226 32.3904C113.293 32.1316 96.729 40.845 96.0388 42.3116C95.3487 43.7782 104.062 57.2367 106.046 57.4955C107.634 57.7025 112.517 54.6485 114.76 53.0956C116.6 53.8289 120.367 54.6485 124.336 53.4407C121.713 53.1647 119.332 51.0251 118.469 49.9898Z" fill="var(--fill-0, #FFDD2A)"/>
<path d="M117.421 78.7467L115.716 72.982L118.604 72.1274L120.309 77.8921L117.421 78.7467Z" fill="var(--fill-0, #FFDD2A)"/>
<path d="M126.981 80.5613L121.628 81.6201L121.044 78.6656L126.397 77.6067L126.981 80.5613Z" fill="var(--fill-0, #FFDD2A)"/>
<path d="M117.421 82.5243L113.127 82.9361L112.839 79.9381L117.133 79.5263L117.421 82.5243Z" fill="var(--fill-0, #FFDD2A)"/>
<path d="M118.204 82.9823L118.91 87.1587L121.88 86.6568L121.174 82.4804L118.204 82.9823Z" fill="var(--fill-0, #FFDD2A)"/>
</g>
<g id="stroke">
<path d="M177.003 57.7584L198.382 36.8513L195.993 34.4079L176.025 53.9348L142.517 44.54L141.595 47.8306L177.003 57.7584Z" fill="var(--fill-0, #6633F5)"/>
<path fill-rule="evenodd" clip-rule="evenodd" d="M192.283 24.5908C173.263 28.8249 154.045 32.8969 135.346 38.4167C133.269 39.0298 132.969 40.4088 133.388 42.2862C136.886 57.9583 143.058 73.3108 148.264 88.4605C168.262 82.6804 190.178 77.498 208.844 68.0344C210.513 67.1879 210.56 65.5758 210.549 63.8645C210.467 51.2274 209.437 37.8868 206.481 25.5479C205.016 19.4316 196.504 23.6514 192.283 24.5908ZM136.731 41.5734C155.284 36.2854 174.202 32.1171 193.026 27.9267C194.43 27.6141 202.862 25.1083 203.158 26.3442C206.052 38.4267 207.051 51.5118 207.131 63.8867C207.134 64.3818 207.127 64.7788 207.111 65.0784C189.349 73.6038 169.268 78.733 150.439 84.2704C145.638 70.2547 139.986 56.0596 136.731 41.5734Z" fill="var(--fill-0, #6633F5)"/>
</g>
<path id="secondary_fill" d="M197.064 35.6121C203.271 36.7903 210.221 32.8967 211.399 26.6898C212.578 20.483 208.922 14.9087 202.715 13.7305C196.508 12.5522 189.137 16.0333 187.959 22.2402C186.781 28.447 190.857 34.4339 197.064 35.6121Z" fill="var(--fill-0, #FF727B)"/>
<g id="symbol_fill">
<path d="M115.191 42.4413L104.45 41.1041L109.67 50.4646L115.191 42.4413Z" fill="var(--fill-0, white)"/>
<path d="M196.88 23.2868L199.005 21.5371L198.206 28.5486C196.825 28.4853 195.735 28.442 195.511 28.442L195.519 31.4538C198.266 31.4976 201.023 31.6781 203.763 31.8621L203.965 28.8571C203.211 28.8065 202.238 28.7508 201.22 28.697L202.419 18.1772L199.966 16.8442L194.966 20.9619L196.88 23.2868Z" fill="var(--fill-0, white)"/>
</g>
</g>
</svg>
