<svg preserveAspectRatio="xMidYMid meet" width="100%" height="100%" overflow="visible" style="display: block;" viewBox="0 0 74.6487 85.0004" fill="none" xmlns="http://www.w3.org/2000/svg">
<g id="Group 1">
<path id="Vector" d="M16.4433 7.98177H12.5146L14.2629 0.828065C14.3017 0.680329 14.288 0.523744 14.224 0.384957C14.1601 0.24617 14.0498 0.133761 13.912 0.0668488C13.7742 -6.30888e-05 13.6175 -0.0173418 13.4683 0.0179596C13.3192 0.053261 13.187 0.138955 13.0941 0.260464L4.51971 11.1574C4.46592 11.226 4.42628 11.3046 4.40308 11.3886C4.37989 11.4726 4.37361 11.5603 4.38456 11.6467C4.39551 11.7331 4.4235 11.8165 4.46693 11.8921C4.51035 11.9676 4.56834 12.0339 4.63757 12.0871C4.75009 12.1747 4.88768 12.2244 5.03043 12.229H8.77251L7.01933 19.0793C6.99808 19.1645 6.99395 19.253 7.00716 19.3397C7.02037 19.4265 7.05069 19.5098 7.09633 19.5848C7.14197 19.6598 7.20205 19.7251 7.27312 19.7769C7.34419 19.8288 7.42483 19.8661 7.51042 19.8867C7.63274 19.9169 7.76113 19.9123 7.88095 19.8734C8.00077 19.8344 8.10719 19.7628 8.18812 19.6665L16.959 9.08272C17.016 9.01667 17.0593 8.94003 17.0865 8.85721C17.1137 8.77439 17.1242 8.68703 17.1173 8.60016C17.1105 8.51329 17.0865 8.42861 17.0466 8.35104C17.0068 8.27346 16.952 8.2045 16.8853 8.14813C16.7642 8.03925 16.6064 7.97985 16.4433 7.98177Z" fill="var(--fill-0, black)"/>
<path id="Vector_2" d="M29.0584 33.6981V30.309C27.9143 30.1483 26.7608 30.0646 25.6056 30.0585C20.1591 30.0569 14.8542 31.7999 10.4619 35.0343C6.06961 38.2687 2.819 42.8257 1.18267 48.0429C-0.453663 53.2602 -0.390408 58.8656 1.3632 64.0442C3.11682 69.2228 6.46937 73.7047 10.9335 76.8383C7.5967 73.2092 5.37159 68.6915 4.52439 63.8256C3.67719 58.9597 4.24379 53.9517 6.15635 49.4008C8.0689 44.8498 11.2464 40.9486 15.3088 38.1638C19.3713 35.379 24.1465 33.8286 29.0633 33.6981H29.0584Z" fill="var(--fill-0, #25F4EE)"/>
<path id="Vector_3" d="M29.6066 71.0653C32.6601 71.0493 35.5904 69.8623 37.7903 67.7502C39.9902 65.6382 41.291 62.7629 41.4232 59.7204V4.02787L51.5573 3.9447C51.3392 2.775 51.2309 1.5876 51.2336 0.39787H37.2734V56.1686C37.2051 58.1456 36.6341 60.0729 35.6141 61.7694C34.594 63.4659 33.1585 64.876 31.4421 65.8674C29.7258 66.8588 27.785 67.3989 25.8019 67.4369C23.8189 67.475 21.8586 67.0098 20.1053 66.0851C21.1813 67.6055 22.6035 68.8496 24.2552 69.7154C25.9069 70.5811 27.7409 71.0438 29.6066 71.0653V71.0653Z" fill="var(--fill-0, #25F4EE)"/>
<path id="Vector_4" d="M70.6675 22.8924V19.6803C66.9207 19.6828 63.2545 18.5854 60.1171 16.5224C62.86 19.736 66.5608 21.9704 70.6675 22.8924Z" fill="var(--fill-0, #25F4EE)"/>
<path id="Vector_5" d="M60.1172 16.522C57.021 13.0482 55.3155 8.59256 55.3169 3.98104H51.5575C52.0432 6.53018 53.0523 8.95614 54.5237 11.1119C55.9951 13.2676 57.898 15.1082 60.1172 16.522V16.522Z" fill="var(--fill-0, #FE2C55)"/>
<path id="Vector_6" d="M25.5741 44.0168C22.9712 44.0149 20.4429 44.8915 18.3938 46.5062C16.3446 48.1209 14.893 50.3805 14.2712 52.9233C13.6494 55.4662 13.8934 58.1454 14.9641 60.5322C16.0347 62.9191 17.8702 64.8757 20.1769 66.089C18.9215 64.3429 18.1704 62.2817 18.0065 60.133C17.8427 57.9843 18.2725 55.832 19.2486 53.9137C20.2246 51.9955 21.7088 50.386 23.5371 49.2633C25.3654 48.1406 27.4666 47.5483 29.6086 47.5518C30.7745 47.554 31.9332 47.7357 33.0445 48.0904V33.8913C31.9063 33.7287 30.7583 33.6453 29.6086 33.6416H29.01V44.5602C27.8988 44.2046 26.7402 44.0213 25.5741 44.0168V44.0168Z" fill="var(--fill-0, #FE2C55)"/>
<path id="Vector_7" d="M70.5944 22.8926V33.7307C63.65 33.7388 56.8793 31.5566 51.2422 27.4934V55.8184C51.2445 60.5123 49.9605 65.1168 47.5304 69.1299C45.1002 73.143 41.6171 76.4108 37.4606 78.577C33.3042 80.7433 28.6339 81.7248 23.9589 81.4147C19.2839 81.1046 14.7836 79.5148 10.9485 76.8184C14.4504 80.5916 19.0056 83.2204 24.0204 84.3624C29.0352 85.5045 34.2771 85.1067 39.063 83.2209C43.8489 81.3352 47.9568 78.0489 50.8516 73.7904C53.7463 69.5318 55.2935 64.4985 55.2917 59.3462V31.031C60.9311 35.0925 67.7033 37.2729 74.6487 37.2634V23.3287C73.2856 23.3289 71.9264 23.1827 70.5944 22.8926V22.8926Z" fill="var(--fill-0, #FE2C55)"/>
<path id="Vector_8" d="M51.265 55.7972V27.5085C56.9166 31.5674 63.7051 33.7469 70.6675 33.7378V22.9136C66.5581 22.0335 62.8459 19.8458 60.0887 16.6794C57.8837 15.2478 55.9929 13.3841 54.5309 11.2014C53.0689 9.01857 52.0662 6.56217 51.5836 3.98104H41.3774L41.3529 59.7657C41.2676 62.2023 40.4203 64.5511 38.9298 66.4825C37.4394 68.414 35.3807 69.8313 33.0424 70.5356C30.7042 71.2399 28.2037 71.1958 25.8918 70.4096C23.5799 69.6233 21.5726 68.1344 20.1514 66.1516C17.828 64.939 15.9791 62.9836 14.9007 60.5981C13.8222 58.2126 13.5765 55.535 14.2028 52.9936C14.8291 50.4522 16.2912 48.194 18.3553 46.5802C20.4193 44.9664 22.966 44.0904 25.5878 44.0922C26.7621 44.0952 27.9291 44.2767 29.0487 44.6305V33.7084C24.1023 33.8202 19.2938 35.3577 15.203 38.1357C11.1122 40.9137 7.9136 44.8135 5.99285 49.365C4.07211 53.9166 3.51118 58.9255 4.37771 63.7881C5.24425 68.6506 7.50124 73.1592 10.8766 76.7703C14.7207 79.4632 19.2316 81.051 23.9176 81.3607C28.6035 81.6704 33.2848 80.6901 37.451 78.5266C41.6172 76.3632 45.1085 73.0996 47.5444 69.0916C49.9803 65.0836 51.2672 60.4851 51.265 55.7972V55.7972Z" fill="var(--fill-0, black)"/>
</g>
</svg>
