<svg preserveAspectRatio="none" width="312" height="112" overflow="visible" style="display: block;" viewBox="0 0 312 112" fill="none" xmlns="http://www.w3.org/2000/svg">
<g id="Creation">
<path id="primary_fill" d="M131.794 17.1299C128.193 18.1302 128.418 19.8832 128.418 22.8818C128.418 46.6343 128.896 70.2928 129.418 94.0298C129.668 105.408 133.516 105.462 136.67 106.409C140.422 107.534 156.802 107.409 164.554 107.284C172.307 107.159 177.684 107.409 178.184 103.033C178.684 98.6563 178.684 52.1413 179.309 34.6356C179.934 17.13 176.933 16.2546 172.057 16.1296C167.18 16.0046 136.296 15.8795 131.794 17.1299Z" fill="var(--fill-0, #6DE7E3)"/>
<g id="tertiary_fill">
<path fill-rule="evenodd" clip-rule="evenodd" d="M111.034 73.2505L109.976 68.1917L112.924 67.5747L113.982 72.6335L111.034 73.2505Z" fill="var(--fill-0, #FFDD2A)"/>
<path fill-rule="evenodd" clip-rule="evenodd" d="M111.067 77.8247L105.714 79.0011L105.068 76.0596L110.42 74.8831L111.067 77.8247Z" fill="var(--fill-0, #FFDD2A)"/>
<path fill-rule="evenodd" clip-rule="evenodd" d="M120.175 75.4438L115.057 76.9732L114.195 74.0875L119.313 72.5581L120.175 75.4438Z" fill="var(--fill-0, #FFDD2A)"/>
<path fill-rule="evenodd" clip-rule="evenodd" d="M112.599 85.6899L111.835 78.5134L114.829 78.1943L115.594 85.3708L112.599 85.6899Z" fill="var(--fill-0, #FFDD2A)"/>
<path fill-rule="evenodd" clip-rule="evenodd" d="M192.903 51.5925L190.467 49.8211C190.467 49.8211 197.719 43.4852 201.106 40.8179L202.969 43.184C199.609 45.8307 192.903 51.5925 192.903 51.5925Z" fill="var(--fill-0, #FFDD2A)"/>
<path fill-rule="evenodd" clip-rule="evenodd" d="M206.359 58.0926L196.006 58.6809L195.835 55.674L206.188 55.0857L206.359 58.0926Z" fill="var(--fill-0, #FFDD2A)"/>
<path fill-rule="evenodd" clip-rule="evenodd" d="M201.463 68.6871L194.052 65.6282L195.201 62.8442L202.612 65.9031L201.463 68.6871Z" fill="var(--fill-0, #FFDD2A)"/>
</g>
<g id="symbol_fill">
<path d="M164.097 92.2363C164.097 94.7129 161.958 96.7207 159.481 96.7207C157.004 96.7207 154.996 94.7129 154.996 92.2363C154.996 89.7596 156.62 87.8245 159.097 87.8245C161.573 87.8245 164.097 89.7596 164.097 92.2363Z" fill="var(--fill-0, white)"/>
<path d="M114.038 28.7674C114.038 35.1674 115.999 53.3949 116.979 61.7086C121.92 61.7086 142.744 60.2968 142.744 59.591V27.238C137.959 27.0811 125.52 27.1674 114.038 28.7674Z" fill="var(--fill-0, white)"/>
</g>
<path id="secondary_fill" d="M126.92 46.2969C123.296 47.8499 122.822 54.0028 123.037 56.8852L141.463 55.3107C141.463 50.4811 138.327 47.0786 134.214 45.1205C135.626 43.9636 136.72 38.8553 134.626 35.4734C130.803 29.2969 124.626 33.0028 123.861 36.7675C123.097 40.5322 124.979 44.1204 126.92 46.2969Z" fill="var(--fill-0, #FF727B)"/>
<g id="stroke">
<path d="M135.526 18.7517C134.701 15.4518 137.958 14.6781 140.399 14.4577C152.702 13.3469 165.33 13.5538 177.665 13.8701C182.004 13.9814 182.868 16.9261 183.275 20.7702C184.283 30.2933 183.83 40.141 183.382 49.8876C183.164 54.6332 182.946 59.3556 182.899 64.0041L185.911 64.0345C185.958 59.3663 186.173 54.6266 186.39 49.8632C186.837 40.02 187.289 30.0758 186.27 20.453C185.706 15.1311 183.707 11.0123 177.742 10.8593C165.291 10.5401 152.547 10.3368 140.128 11.4581C135.828 11.8464 131.307 14.2924 132.604 19.4821L135.526 18.7517Z" fill="var(--fill-0, #6633F5)"/>
<path d="M136.57 90.2318C136.37 81.1114 135.819 67.4849 135.569 61.8144L132.56 61.9471C132.81 67.6136 133.36 81.2125 133.559 90.298C133.78 100.322 138.016 104.177 147.067 104.776C154.272 105.252 161.489 105.149 168.704 105.046C169.723 105.032 170.741 105.017 171.759 105.004C182.108 104.872 185.404 102.424 185.598 91.4607L182.587 91.4074C182.424 100.609 180.656 101.871 171.748 101.991C170.792 102.004 169.835 102.018 168.878 102.032C161.672 102.139 154.462 102.247 147.266 101.77C140.016 101.291 136.738 97.8469 136.57 90.2318Z" fill="var(--fill-0, #6633F5)"/>
<path d="M158.618 45.7718L155.674 45.682C155.226 43.2172 153.06 41.2714 150.626 41.2714V38.2596C153.245 38.2596 155.55 39.5796 157.033 41.5298C158.614 38.5043 161.702 34.858 165.444 34.7746C169.277 34.6892 170.546 39.1334 170.798 42.2276C172.767 40.473 176.047 38.7081 178.146 41.2848C181.284 45.1351 175.732 51.3293 173.195 54.0154C173.161 61.6021 170.116 72.5134 160.728 72.3301C157.512 72.3268 154.665 71.1012 152.587 69.0435C147.074 69.2434 142.73 72.6394 141.289 74.2865L139.022 72.3032C140.633 70.4626 144.878 67.0684 150.499 66.219C149.974 65.2259 149.579 64.1381 149.335 62.9763C147.161 62.9048 144.745 61.9279 144.427 59.4896L147.413 59.1001C147.613 60.6298 150.626 60.5403 152.008 59.7061C152.39 64.7974 155.26 69.2612 160.775 69.3187C168.838 69.4867 170.287 58.8215 170.167 52.8078C171.335 51.6218 172.552 50.4884 173.642 49.227C175.453 47.132 177.02 44.6701 175.812 43.1872C174.512 41.5922 171.013 46.297 170.446 47.1027L167.715 46.0998L167.728 45.9528C167.904 44.0536 168.352 37.7223 165.511 37.7856C161.967 37.8646 159.315 42.9348 158.618 45.7718Z" fill="var(--fill-0, #6633F5)"/>
<path fill-rule="evenodd" clip-rule="evenodd" d="M168.543 81.0068C168.08 84.2039 170.531 87.0819 173.413 88.3685C179.196 90.9502 188.996 86.1482 185.119 79.1174C186.988 77.0507 188.871 74.4347 189.468 71.6532C189.993 69.2082 188.511 66.7196 185.759 67.3884C184.267 67.7509 182.957 68.7338 181.81 69.7218C181.86 68.5298 181.799 67.2706 181.273 66.1801C180.156 63.8677 177.253 63.7638 175.547 65.4704C173.636 67.3814 172.831 70.4925 172.588 73.2019C170.503 73.2705 168.402 74.3314 167.64 76.209C166.872 78.1008 167.386 79.8024 168.543 81.0068ZM175.556 73.8765C176.285 74.2886 176.889 74.8933 177.268 75.7039C178.537 78.4248 177.413 81.9472 174.333 82.6732C173.436 82.8847 172.508 82.8759 171.631 82.6862C172.061 84.0087 173.419 85.0731 174.641 85.6183C179.77 87.9084 184.975 83.2483 181.071 78.8573C183.283 76.7952 185.862 74.1045 186.524 71.0211C186.803 69.7192 185.499 70.6797 184.85 71.1578L184.847 71.1602L184.84 71.1651C184.794 71.1989 184.752 71.2301 184.714 71.2578C183.248 72.3201 181.72 73.9414 180.905 75.1279L178.182 74.0065C178.26 73.5763 178.366 73.1241 178.474 72.6598C178.875 70.9393 179.314 69.051 178.561 67.4899C178.358 67.0702 177.919 67.3571 177.677 67.6C176.189 69.0873 175.69 71.7936 175.556 73.8765ZM173.642 79.7418C172.15 80.0936 169.681 79.187 170.43 77.3421C170.933 76.1036 173.903 75.6164 174.538 76.9776C175.002 77.9712 174.888 79.448 173.642 79.7418Z" fill="var(--fill-0, #6633F5)"/>
<path d="M164.038 20.2126H154.273V17.2008H164.038V20.2126Z" fill="var(--fill-0, #6633F5)"/>
<path d="M154.179 51.0596V53.8832H157.191V51.0596H154.179Z" fill="var(--fill-0, #6633F5)"/>
<path d="M159.591 59.6479V50.942H162.602V59.6479H159.591Z" fill="var(--fill-0, #6633F5)"/>
<path d="M164.061 51.4126V54.0008H167.073V51.4126H164.061Z" fill="var(--fill-0, #6633F5)"/>
<path d="M153.688 60.5403L156.27 58.9907C158.409 62.5556 162.509 62.9646 164.323 59.1225L167.046 60.4085C164.247 66.3363 157.06 66.1608 153.688 60.5403Z" fill="var(--fill-0, #6633F5)"/>
<path fill-rule="evenodd" clip-rule="evenodd" d="M148.014 57.3103V22.0158C137.4 21.6678 126.817 22.226 116.297 23.6919C116.297 33.8704 117.529 43.9873 118.758 54.0817C118.976 55.8713 119.194 57.6611 119.405 59.4496C128.077 59.4496 148.014 57.3103 148.014 57.3103ZM122.081 56.4151C121.128 48.1781 119.536 33.1305 119.33 26.3172C129.294 25.0355 139.747 24.8548 145.002 24.9431V54.6951C137.469 55.9097 129.695 56.2001 122.081 56.4151Z" fill="var(--fill-0, #6633F5)"/>
</g>
</g>
</svg>
