<svg preserveAspectRatio="xMidYMid meet" width="100%" height="100%" overflow="visible" style="display: block;" viewBox="0 0 278.589 119" fill="none" xmlns="http://www.w3.org/2000/svg">
<g id="Illustration_L/Find_Music_Light_SVG">
<path id="secondary_fill" d="M206.659 42.6052C206.148 38.7438 200.348 36.469 194.151 35.7324C177.522 33.7556 160.858 31.8142 144.168 30.4097C138.857 29.9628 136.145 30.6472 134.297 35.7324C129.296 49.4944 124.718 88.7916 125.17 92.4557C125.698 96.73 131.449 98.2114 136.809 99.1747C142.17 100.138 183.82 104.485 189.172 104.526C194.525 104.566 195.865 101.765 196.815 99.1747C198.878 93.6376 208.056 53.0643 206.659 42.6052Z" fill="var(--fill-0, #D4555E)"/>
<path id="primary_fill" d="M130.117 50.0153C122.368 42.5875 105.437 45.7561 99.287 51.9121C93.137 58.0682 89.7545 67.8349 97.6552 79.3428C97.6552 79.3428 78.2168 98.9003 79.0477 101.937C79.9298 105.198 85.9196 110.885 87.5809 110.34C90.8501 109.32 104.489 89.156 105.844 87.3164C113.462 91.2927 124.812 90.061 130.757 83.7251C138.878 75.0695 138.943 58.4752 130.117 50.0153ZM107.968 75.6449C102.931 72.1134 102.961 66.2732 105.2 60.1378C109.243 51.9121 119.263 53.4883 123.881 57.4384C129.372 62.1358 128.026 70.3438 123.881 74.8809C119.603 79.5638 113.004 79.1764 107.968 75.6449Z" fill="var(--fill-0, #49C2BF)"/>
<g id="tertiary_fill">
<path d="M114.922 7.71833L117.311 6.59937L122.755 18.1461L120.366 19.265L114.922 7.71833Z" fill="var(--fill-0, #DFC00C)"/>
<path d="M97.651 15.5064L95.6679 17.2428L104.518 27.2837L106.501 25.5472L97.651 15.5064Z" fill="var(--fill-0, #DFC00C)"/>
<path d="M82.1899 30.8495L81.4898 33.3862L97.7397 37.8413L98.4398 35.3046L82.1899 30.8495Z" fill="var(--fill-0, #DFC00C)"/>
</g>
<g id="stroke">
<path fill-rule="evenodd" clip-rule="evenodd" d="M123.56 76.1315C131.492 70.3898 131.273 57.6478 123.437 51.9547C118.252 48.1876 110.125 48.2316 104.901 51.9547C97.2993 57.3725 97.3535 68.4043 103.878 74.4415C109.152 79.3223 117.575 80.4639 123.56 76.1315ZM122.354 74.0871C115.743 78.1786 109.364 75.8579 105.678 72.6138C100.145 67.7439 100.436 58.3045 106.808 54.0853C111.212 51.1697 117.482 50.9597 121.865 54.0853C127.861 58.3613 129.157 69.8696 122.354 74.0871Z" fill="var(--fill-0, #826FF6)"/>
<path fill-rule="evenodd" clip-rule="evenodd" d="M76.2287 98.6319C76.7404 99.7409 81.703 106.339 84.5376 106.339H84.5864C85.0374 106.305 85.6604 105.968 86.4083 105.399C91.6945 101.38 103.217 85.8027 104.299 84.3843C111.409 87.4759 121.807 87.3287 128.654 82.3281C139.993 74.0475 139.069 54.0709 128.654 45.09C120.637 38.177 107.137 39.0803 99.0733 45.8995C89.1102 54.3252 89.7061 70.0427 94.601 75.8924C91.9206 79.0495 80.4116 89.7109 76.9353 95.1833C75.9931 96.6566 75.8876 97.879 76.2287 98.6319ZM97.8011 76.2566C92.0414 66.9601 92.1576 55.4075 101.123 47.9233C108.181 42.0312 119.866 40.9177 126.837 47.1138C135.983 55.2449 136.964 72.5889 127.11 80.2606C121.134 84.9133 109.824 85.4459 103.47 81.0976C103.47 81.0976 86.6007 103.092 84.497 103.691C83.563 103.343 79.64 99.4009 78.6897 97.6766C77.9587 96.3328 97.8011 76.2566 97.8011 76.2566Z" fill="var(--fill-0, #826FF6)"/>
</g>
<path id="symbol_fill" d="M182.748 55.9585C177.777 54.3508 174.555 50.6941 175.532 45.5677L167.652 44.5238C167.14 48.6788 162.723 70.2042 162.723 70.2042C162.723 70.2042 149.313 64.7938 147.171 76.0511C144.97 87.7401 166.164 92.3962 168.598 80.4381C169.179 77.5862 173.091 58.2646 173.091 58.2646C173.091 58.2646 176.548 63.0404 181.193 62.8153C181.193 62.8153 181.732 57.9234 182.748 55.9585Z" fill="var(--fill-0, #E3E3E3)"/>
</g>
</svg>
