<svg preserveAspectRatio="xMidYMid meet" width="100%" height="100%" overflow="visible" style="display: block;" viewBox="0 0 278.589 119" fill="none" xmlns="http://www.w3.org/2000/svg">
<g id="Illustration_L/Thumbs_Up_Light_SVG">
<g id="tertiary_fill">
<path d="M172.6 88.0214L171.778 90.4785L166.905 88.8594L167.727 86.4024L172.6 88.0214Z" fill="var(--fill-0, #DFC00C)"/>
<path d="M173.185 84.056L167.5 84.8656L167.132 82.301L172.817 81.4915L173.185 84.056Z" fill="var(--fill-0, #DFC00C)"/>
<path d="M171.734 79.161L166.048 80.78L165.335 78.2898L171.02 76.6707L171.734 79.161Z" fill="var(--fill-0, #DFC00C)"/>
<path d="M189.63 38.6041L187.448 44.9151L184.991 44.0708L187.175 37.7598L189.63 38.6041Z" fill="var(--fill-0, #DFC00C)"/>
<path d="M131.863 8.11575C137.896 7.28814 145.098 7.26281 153.485 8.12366C160.774 8.87175 167.925 10.5221 172.85 11.8369C174.429 12.2584 175.561 13.6272 175.669 15.2528C175.918 19.0159 176.159 24.7347 175.935 29.512C175.722 34.0538 174.777 38.5203 173.982 41.4477C173.571 42.9612 172.222 43.9962 170.651 44.089C164.387 44.459 153.836 44.7626 147.121 43.8376C141.009 42.9957 133.982 42.0075 129.499 41.1521C127.721 40.8129 126.496 39.232 126.361 37.4333C126.076 33.6413 125.489 28.5784 126.108 23.8359C126.711 19.2148 127.901 14.2545 128.696 11.0305C129.071 9.50925 130.305 8.32933 131.863 8.11575Z" fill="var(--fill-0, #DFC00C)"/>
<path d="M78.8339 40.8287L76.3845 41.6928L74.1494 35.4L76.5987 34.536L78.8339 40.8287Z" fill="var(--fill-0, #DFC00C)"/>
<path d="M196.065 37.7851L195.174 40.2169L190.084 38.3638L190.976 35.9321L196.065 37.7851Z" fill="var(--fill-0, #DFC00C)"/>
<path d="M187.83 34.8498L186.899 37.2681L181.47 35.1945L182.401 32.7762L187.83 34.8498Z" fill="var(--fill-0, #DFC00C)"/>
<path d="M73.6267 35.1858L68.0832 36.9345L67.2995 34.464L72.843 32.7161L73.6267 35.1858Z" fill="var(--fill-0, #DFC00C)"/>
<path d="M192.565 30.4156L190.485 35.8277L188.058 34.9004L190.139 29.4883L192.565 30.4156Z" fill="var(--fill-0, #DFC00C)"/>
<path d="M81.9431 32.3556L76.8041 34.0656L75.9816 31.6085L81.1214 29.8994L81.9431 32.3556Z" fill="var(--fill-0, #DFC00C)"/>
<path d="M75.5319 31.8346L73.054 32.6157L71.2995 27.0898L73.7774 26.3087L75.5319 31.8346Z" fill="var(--fill-0, #DFC00C)"/>
</g>
<g id="primary_fill">
<path d="M118.989 65.1668C120.207 59.0954 124.675 59.9054 123.457 68.4049C126.164 69.0795 131.66 70.2666 130.361 76.0946C128.736 83.3801 123.457 78.929 118.584 81.3565C114.654 83.3141 114.116 87.428 116.147 90.666C117.771 93.2565 121.697 95.2533 123.457 95.9279C124.675 92.8247 127.518 87.0229 131.985 81.3565C136.424 75.7257 146.605 67.1907 156.351 70.4287C168.128 74.3418 164.474 96.3327 163.661 107.666L115.335 108.476C111.68 106.587 104.289 100.219 103.964 89.8573C103.558 76.9056 110.327 72.6753 112.491 71.2375C114.928 69.6185 118.157 69.3103 118.989 65.1668Z" fill="var(--fill-0, #49C2BF)"/>
<path d="M113.259 19.4588C119.316 19.4231 130.148 20.3964 135.042 20.8699C136.514 21.0124 137.667 22.1748 137.792 23.644C138.079 27.0239 138.547 33.1741 138.619 38.1537C138.691 43.0708 137.639 51.148 137.076 55.0849C136.881 56.4525 135.792 57.5041 134.415 57.6558C129.898 58.1534 119.713 59.1454 112.256 58.9025C104.158 58.6387 95.3618 58.1206 89.9483 57.8234C88.3645 57.7365 87.0721 56.4841 86.8327 54.9213C86.2552 51.1516 85.2264 45.6799 85.6889 38.4525C85.975 33.9829 86.7737 26.633 87.2158 22.723C87.3878 21.2017 88.6519 20.0443 90.187 19.994C95.1496 19.8316 105.959 19.5018 113.259 19.4588Z" fill="var(--fill-0, #49C2BF)"/>
</g>
<path id="secondary_fill" d="M177.187 70.5683C180.387 70.957 184.578 70.914 186.586 70.8633C187.283 70.8458 187.873 70.3623 188.032 69.6832C188.446 67.9129 189.198 64.4893 189.356 62.3576C189.516 60.2145 189.555 57.5702 189.562 56.031C189.566 55.2848 189.041 54.6474 188.308 54.5076C186.171 54.1003 181.802 53.3049 179.193 53.0894C176.069 52.8314 172.035 52.8003 170.031 52.803C169.301 52.804 168.674 53.3121 168.517 54.0249C168.164 55.6311 167.547 58.4794 167.194 60.3789C166.74 62.8261 166.804 65.4941 166.838 67.3315C166.854 68.1348 167.448 68.8284 168.237 68.9785C170.455 69.4003 173.715 70.1467 177.187 70.5683Z" fill="var(--fill-0, #D4555E)"/>
<g id="symbol_fill">
<path d="M183.716 62.376L174.654 66.7248L175.698 57.0999L183.716 62.376Z" fill="var(--fill-0, #E3E3E3)"/>
<path d="M124.959 38.5346L105.58 50.0411L105.997 28.3333L124.959 38.5346Z" fill="var(--fill-0, #E3E3E3)"/>
<path d="M162.631 26.7593L144.607 34.4965L145.684 16.7597L162.631 26.7593Z" fill="var(--fill-0, #E3E3E3)"/>
</g>
<g id="stroke">
<path fill-rule="evenodd" clip-rule="evenodd" d="M138.537 58.9577C138.073 61.152 138.128 66.1416 141.471 69.5961C145.001 68.3294 148.857 67.9219 152.702 69.1993C156.061 70.3153 158.28 72.7258 159.695 75.7577C161.093 78.7569 161.731 82.4109 161.964 86.185C162.428 93.7031 161.295 102.212 160.897 107.758L158.305 107.574C158.72 101.787 159.82 93.633 159.37 86.3439C159.192 83.4583 158.77 80.7901 158.001 78.5214C155.95 78.268 152.968 77.7251 149.919 76.8202C146.76 75.8824 143.396 74.5192 140.941 72.5978C136.249 74.6665 132.099 78.1579 128.946 82.1572C125.25 86.8459 122.314 92.055 120.136 97.599C118.341 96.9106 116.606 96.1503 114.984 95.1025C111.656 92.9524 108.871 89.4509 109.801 85.2522C110.661 81.3759 114.429 79.3572 118.15 79.2401C119.289 79.2042 120.429 79.3076 121.568 79.2535C123.718 79.1513 124.582 77.8303 125.032 75.8138C125.311 74.5604 125.204 73.6634 124.942 73.0066C124.679 72.3467 124.216 71.815 123.593 71.3693C122.286 70.4336 120.506 70.0168 119.082 69.6617L117.944 69.3779L118.11 68.2214C118.4 66.1954 118.337 64.7192 118.116 63.7445C118.018 63.3114 117.806 62.1864 117.287 62.7729C116.921 63.1857 116.483 64.0304 116.204 65.4204C115.71 67.8821 114.456 69.2729 112.996 70.2301C111.774 71.0318 110.369 71.5066 109.153 72.3148C108.085 73.0243 106.043 74.3218 104.285 76.9475C102.536 79.56 101.007 83.5856 101.203 89.816C101.508 99.5588 108.482 105.574 111.872 107.326L110.676 109.626C106.757 107.6 98.9484 100.878 98.6041 89.8967C98.3935 83.1754 100.047 78.6091 102.123 75.5094C104.189 72.4234 106.615 70.8871 107.711 70.159C108.933 69.3465 110.342 68.87 111.568 68.0664C112.54 67.4291 113.317 66.5937 113.655 64.9121C113.985 63.2672 114.562 61.9355 115.339 61.0582C117.49 58.6291 120.071 60.6112 120.651 63.1737C120.907 64.3035 120.978 65.7258 120.82 67.4269C122.102 67.7661 123.756 68.2966 125.109 69.2649C126.036 69.9286 126.872 70.829 127.358 72.0516C127.846 73.2774 127.939 74.7155 127.569 76.3759C126.869 79.5121 125.02 81.6828 121.692 81.841C120.539 81.8957 119.385 81.7929 118.232 81.8291C115.701 81.9087 112.939 83.1037 112.339 85.8103C111.651 88.9144 114.002 91.3809 116.397 92.9284C117.2 93.4471 118.01 93.8816 118.701 94.2123C120.152 90.8585 122.884 85.6548 126.903 80.5563C130.112 76.4857 134.269 72.953 138.946 70.6673C135.423 66.43 135.471 60.8958 135.993 58.4233L138.537 58.9577ZM151.88 71.6571C149.267 70.7888 146.583 70.8486 143.964 71.5322C145.872 72.6879 148.245 73.6205 150.661 74.3379C152.845 74.9861 154.995 75.4367 156.742 75.7221C155.589 73.7688 154.018 72.3673 151.88 71.6571Z" fill="var(--fill-0, #826FF6)"/>
<path d="M135.605 84.8688C136.151 86.066 138.371 89.0567 142.495 90.2311C146.546 91.3846 149.671 89.7251 150.615 88.8887L152.341 90.8256C150.848 92.148 146.826 94.158 141.781 92.7213C136.808 91.3052 134.046 87.7119 133.238 85.9408L135.605 84.8688Z" fill="var(--fill-0, #826FF6)"/>
<path d="M150.367 81.0583C149.377 82.0448 148.398 83.1074 147.767 84.3652C147.213 85.4695 146.887 86.4454 146.665 87.6602L144.108 87.1969C144.374 85.7405 144.779 84.5303 145.443 83.2062C146.188 81.7204 147.351 80.401 148.528 79.2274L150.367 81.0583Z" fill="var(--fill-0, #826FF6)"/>
<path d="M143.869 78.6297C142.879 79.6162 141.9 80.6788 141.269 81.9366C140.715 83.041 140.389 84.0168 140.167 85.2316L137.61 84.7684C137.876 83.3119 138.281 82.1017 138.945 80.7777C139.7 79.2722 140.844 77.9811 142.031 76.7988L143.869 78.6297Z" fill="var(--fill-0, #826FF6)"/>
</g>
</g>
</svg>
