<svg preserveAspectRatio="xMidYMid meet" width="100%" height="100%" overflow="visible" style="display: block;" viewBox="0 0 278 119" fill="none" xmlns="http://www.w3.org/2000/svg">
<g id="Illustration_M/Stories_Dual_Camera_Light_SVG">
<path id="primary_fill" d="M116.554 18.0746C112.728 19.1374 112.966 21 112.967 24.1859C112.967 49.423 113.475 74.5602 114.029 99.7807C114.295 111.871 118.383 111.928 121.735 112.933C125.72 114.129 143.124 113.996 151.361 113.863C159.598 113.73 165.311 113.996 165.843 109.346C166.374 104.696 166.374 55.2742 167.038 36.6744C167.703 18.0747 164.514 17.1446 159.333 17.0118C154.151 16.8789 121.337 16.746 116.554 18.0746Z" fill="var(--fill-0, #6DE7E3)"/>
<g id="tertiary_fill">
<path fill-rule="evenodd" clip-rule="evenodd" d="M94.4964 77.7028L93.3714 72.3278L96.5036 71.6722L97.6286 77.0472L94.4964 77.7028Z" fill="var(--fill-0, #FFDD2A)"/>
<path fill-rule="evenodd" clip-rule="evenodd" d="M94.5309 82.5628L88.8435 83.8128L88.1565 80.6874L93.844 79.4374L94.5309 82.5628Z" fill="var(--fill-0, #FFDD2A)"/>
<path fill-rule="evenodd" clip-rule="evenodd" d="M104.208 80.0331L98.7706 81.6581L97.8544 78.5921L103.292 76.9671L104.208 80.0331Z" fill="var(--fill-0, #FFDD2A)"/>
<path fill-rule="evenodd" clip-rule="evenodd" d="M96.159 90.9196L95.3465 83.2946L98.5285 82.9556L99.341 90.5806L96.159 90.9196Z" fill="var(--fill-0, #FFDD2A)"/>
<path fill-rule="evenodd" clip-rule="evenodd" d="M181.481 54.6912L178.894 52.809C178.894 52.809 186.599 46.0771 190.198 43.2431L192.177 45.7571C188.606 48.5692 181.481 54.6912 181.481 54.6912Z" fill="var(--fill-0, #FFDD2A)"/>
<path fill-rule="evenodd" clip-rule="evenodd" d="M195.778 61.5975L184.778 62.2225L184.597 59.0277L195.597 58.4027L195.778 61.5975Z" fill="var(--fill-0, #FFDD2A)"/>
<path fill-rule="evenodd" clip-rule="evenodd" d="M190.577 72.8541L182.702 69.6041L183.923 66.6461L191.798 69.8961L190.577 72.8541Z" fill="var(--fill-0, #FFDD2A)"/>
</g>
<g id="symbol_fill">
<path d="M150.875 97.8751C150.875 100.507 148.602 102.64 145.971 102.64C143.339 102.64 141.206 100.507 141.206 97.8751C141.206 95.2437 142.931 93.1876 145.562 93.1876C148.194 93.1876 150.875 95.2437 150.875 97.8751Z" fill="var(--fill-0, white)"/>
<path d="M97.6875 30.4394C97.6875 37.2394 99.7708 56.6061 100.812 65.4394C106.062 65.4394 128.188 63.9395 128.188 63.1895V28.8144C123.104 28.6478 109.887 28.7394 97.6875 30.4394Z" fill="var(--fill-0, white)"/>
</g>
<path id="secondary_fill" d="M111.375 49.0644C107.525 50.7144 107.02 57.2519 107.25 60.3144L126.827 58.6416C126.827 53.5101 123.494 49.895 119.125 47.8145C120.625 46.5853 121.787 41.1577 119.562 37.5644C115.5 31.0019 108.938 34.9394 108.125 38.9394C107.312 42.9394 109.312 46.7519 111.375 49.0644Z" fill="var(--fill-0, #FF727B)"/>
<g id="stroke">
<path d="M120.518 19.7978C119.642 16.2916 123.103 15.4695 125.696 15.2354C138.768 14.0551 152.186 14.2751 165.291 14.6111C169.901 14.7293 170.819 17.8581 171.252 21.9424C172.323 32.0607 171.842 42.5239 171.366 52.8797C171.134 57.9219 170.903 62.9394 170.853 67.8785L174.053 67.9108C174.103 62.9508 174.332 57.9149 174.562 52.8538C175.037 42.3953 175.517 31.8296 174.434 21.6054C173.835 15.9509 171.711 11.5747 165.373 11.4122C152.144 11.0729 138.604 10.857 125.408 12.0484C120.839 12.4609 116.035 15.0598 117.414 20.5739L120.518 19.7978Z" fill="var(--fill-0, #6633F5)"/>
<path d="M121.628 95.7454C121.415 86.0549 120.83 71.5768 120.565 65.5519L117.368 65.6929C117.633 71.7136 118.217 86.1624 118.429 95.8157C118.663 106.467 123.164 110.562 132.781 111.198C140.436 111.705 148.105 111.595 155.77 111.485C156.853 111.47 157.935 111.454 159.017 111.44C170.013 111.3 173.514 108.7 173.72 97.0511L170.521 96.9944C170.348 106.772 168.469 108.112 159.005 108.239C157.988 108.253 156.972 108.268 155.955 108.283C148.299 108.397 140.638 108.511 132.992 108.005C125.289 107.495 121.806 103.836 121.628 95.7454Z" fill="var(--fill-0, #6633F5)"/>
<path d="M145.054 48.5066L141.926 48.4112C141.45 45.7923 139.148 43.725 136.562 43.725V40.525C139.345 40.525 141.794 41.9274 143.37 43.9995C145.05 40.7849 148.331 36.9107 152.306 36.8222C156.379 36.7314 157.728 41.4534 157.995 44.7409C160.088 42.8767 163.572 41.0015 165.803 43.7392C169.136 47.8301 163.237 54.4115 160.542 57.2655C160.506 65.3263 157.27 76.9196 147.296 76.7249C143.879 76.7213 140.854 75.4191 138.646 73.2328C132.789 73.4453 128.173 77.0535 126.642 78.8035L124.233 76.6963C125.944 74.7407 130.456 71.1343 136.427 70.2318C135.87 69.1766 135.45 68.0209 135.191 66.7864C132.881 66.7105 130.314 65.6725 129.976 63.0818L133.149 62.6679C133.361 64.2933 136.562 64.1982 138.031 63.3119C138.437 68.7213 141.486 73.4642 147.346 73.5252C155.913 73.7037 157.452 62.372 157.324 55.9824C158.566 54.7223 159.858 53.5181 161.017 52.1778C162.941 49.9518 164.606 47.3361 163.322 45.7605C161.941 44.0658 158.223 49.0647 157.621 49.9208L154.719 48.8551L154.733 48.6989C154.921 46.681 155.397 39.9541 152.377 40.0214C148.612 40.1052 145.794 45.4924 145.054 48.5066Z" fill="var(--fill-0, #6633F5)"/>
<path fill-rule="evenodd" clip-rule="evenodd" d="M155.599 85.9439C155.107 89.3408 157.711 92.3987 160.774 93.7656C166.918 96.5087 177.331 91.4066 173.212 83.9363C175.197 81.7404 177.198 78.961 177.833 76.0057C178.39 73.4078 176.815 70.7636 173.891 71.4743C172.306 71.8595 170.914 72.9038 169.695 73.9536C169.748 72.687 169.684 71.3491 169.124 70.1905C167.938 67.7335 164.854 67.6231 163.041 69.4364C161.011 71.4669 160.155 74.7724 159.897 77.6512C157.682 77.724 155.45 78.8512 154.64 80.8462C153.823 82.8562 154.37 84.6642 155.599 85.9439ZM163.05 78.3679C163.825 78.8057 164.467 79.4482 164.869 80.3095C166.218 83.2005 165.023 86.943 161.751 87.7144C160.798 87.9391 159.812 87.9297 158.88 87.7282C159.337 89.1334 160.78 90.2643 162.078 90.8436C167.528 93.2768 173.058 88.3254 168.911 83.66C171.26 81.469 174.001 78.6102 174.704 75.334C175.001 73.9508 173.615 74.9713 172.926 75.4792L172.922 75.4818L172.915 75.4871C172.866 75.5229 172.821 75.5561 172.781 75.5855C171.223 76.7142 169.6 78.4368 168.734 79.6976L165.841 78.506C165.924 78.0489 166.036 77.5685 166.151 77.0751C166.577 75.2471 167.044 73.2408 166.243 71.5821C166.028 71.1362 165.562 71.441 165.304 71.6991C163.724 73.2794 163.193 76.1548 163.05 78.3679ZM161.017 84.5998C159.432 84.9736 156.809 84.0103 157.605 82.0501C158.139 80.7341 161.294 80.2165 161.969 81.6628C162.462 82.7185 162.341 84.2876 161.017 84.5998Z" fill="var(--fill-0, #6633F5)"/>
<path d="M150.812 21.35H140.437V18.15H150.812V21.35Z" fill="var(--fill-0, #6633F5)"/>
<path d="M140.337 54.125V57.125H143.537V54.125H140.337Z" fill="var(--fill-0, #6633F5)"/>
<path d="M146.087 63.25V54H149.287V63.25H146.087Z" fill="var(--fill-0, #6633F5)"/>
<path d="M150.837 54.5V57.25H154.037V54.5H150.837Z" fill="var(--fill-0, #6633F5)"/>
<path d="M139.815 64.1982L142.559 62.5518C144.832 66.3394 149.188 66.774 151.116 62.6918L154.009 64.0582C151.035 70.3565 143.398 70.1699 139.815 64.1982Z" fill="var(--fill-0, #6633F5)"/>
<path fill-rule="evenodd" clip-rule="evenodd" d="M133.787 60.7664V23.2659C122.51 22.8961 111.265 23.4892 100.087 25.0468C100.087 35.8614 101.397 46.6106 102.703 57.3359C102.934 59.2374 103.166 61.139 103.39 63.0393C112.604 63.0393 133.787 60.7664 133.787 60.7664ZM106.234 59.8152C105.221 51.0634 103.53 35.0752 103.311 27.8361C113.897 26.4744 125.004 26.2823 130.587 26.3762V57.9876C122.583 59.2782 114.324 59.5867 106.234 59.8152Z" fill="var(--fill-0, #6633F5)"/>
</g>
</g>
</svg>
