<svg preserveAspectRatio="none" width="312" height="112" overflow="visible" style="display: block;" viewBox="0 0 312 112" fill="none" xmlns="http://www.w3.org/2000/svg">
<g id="Feed">
<g id="tertiary_fill">
<path d="M193.897 82.6685L193.125 84.9762L188.548 83.4556L189.32 81.148L193.897 82.6685Z" fill="var(--fill-0, #FFDD2A)"/>
<path d="M194.447 78.9443L189.107 79.7046L188.761 77.296L194.101 76.5357L194.447 78.9443Z" fill="var(--fill-0, #FFDD2A)"/>
<path d="M193.083 74.3469L187.744 75.8675L187.073 73.5287L192.413 72.0081L193.083 74.3469Z" fill="var(--fill-0, #FFDD2A)"/>
<path d="M209.891 36.2565L207.841 42.1837L205.534 41.3907L207.585 35.4635L209.891 36.2565Z" fill="var(--fill-0, #FFDD2A)"/>
<path d="M155.637 7.62222C161.304 6.84494 168.067 6.82115 175.945 7.62965C182.79 8.33225 189.506 9.88227 194.132 11.117C195.614 11.5129 196.678 12.7985 196.779 14.3253C197.013 17.8595 197.24 23.2305 197.029 27.7173C196.829 31.9829 195.941 36.1777 195.195 38.9272C194.809 40.3486 193.541 41.3206 192.067 41.4078C186.183 41.7553 176.274 42.0404 169.967 41.1717C164.227 40.381 157.627 39.4529 153.417 38.6495C151.747 38.3309 150.597 36.8462 150.47 35.1569C150.202 31.5955 149.651 26.8405 150.232 22.3863C150.799 18.0463 151.916 13.3876 152.663 10.3597C153.015 8.93098 154.174 7.82281 155.637 7.62222Z" fill="var(--fill-0, #FFDD2A)"/>
<path d="M105.833 38.3458L103.533 39.1573L101.433 33.2472L103.734 32.4357L105.833 38.3458Z" fill="var(--fill-0, #FFDD2A)"/>
<path d="M215.935 35.4873L215.098 37.7711L210.318 36.0308L211.156 33.7469L215.935 35.4873Z" fill="var(--fill-0, #FFDD2A)"/>
<path d="M208.2 32.7305L207.327 35.0017L202.228 33.0542L203.101 30.783L208.2 32.7305Z" fill="var(--fill-0, #FFDD2A)"/>
<path d="M100.942 33.046L95.736 34.6884L95 32.3681L100.206 30.7265L100.942 33.046Z" fill="var(--fill-0, #FFDD2A)"/>
<path d="M212.648 28.5659L210.694 33.6489L208.415 32.778L210.369 27.695L212.648 28.5659Z" fill="var(--fill-0, #FFDD2A)"/>
<path d="M108.753 30.388L103.927 31.9939L103.154 29.6863L107.981 28.0811L108.753 30.388Z" fill="var(--fill-0, #FFDD2A)"/>
<path d="M102.732 29.8987L100.405 30.6322L98.7567 25.4423L101.084 24.7088L102.732 29.8987Z" fill="var(--fill-0, #FFDD2A)"/>
</g>
<g id="primary_fill">
<path d="M143.546 61.2037C144.69 55.5014 148.886 56.2622 147.742 64.2449C150.285 64.8784 155.446 65.9933 154.226 71.4669C152.701 78.3093 147.742 74.1289 143.165 76.4088C139.475 78.2474 138.97 82.111 140.877 85.1522C142.402 87.5851 146.089 89.4605 147.742 90.0941C148.887 87.1795 151.557 81.7306 155.752 76.4088C159.921 71.1204 169.483 63.1045 178.636 66.1456C189.697 69.8206 186.265 90.4743 185.502 101.118L140.114 101.879C136.681 100.105 129.74 94.1242 129.435 84.3926C129.053 72.2286 135.411 68.2555 137.443 66.9051C139.732 65.3846 142.765 65.0951 143.546 61.2037Z" fill="var(--fill-0, #6DE7E3)"/>
<path d="M138.165 18.2753C143.853 18.2418 154.026 19.1559 158.623 19.6006C160.006 19.7344 161.088 20.8261 161.206 22.206C161.476 25.3804 161.915 31.1565 161.983 35.8333C162.05 40.4514 161.062 48.0374 160.534 51.7349C160.35 53.0193 159.327 54.0069 158.034 54.1494C153.792 54.6167 144.226 55.5484 137.222 55.3203C129.617 55.0726 121.356 54.586 116.271 54.3068C114.784 54.2252 113.57 53.049 113.345 51.5812C112.803 48.0408 111.837 42.9019 112.271 36.114C112.54 31.9162 113.29 25.0133 113.705 21.341C113.867 19.9122 115.054 18.8252 116.496 18.778C121.156 18.6254 131.308 18.3157 138.165 18.2753Z" fill="var(--fill-0, #6DE7E3)"/>
</g>
<path id="secondary_fill" d="M198.204 66.2767C201.21 66.6418 205.146 66.6013 207.032 66.5538C207.687 66.5373 208.241 66.0832 208.39 65.4454C208.779 63.7828 209.485 60.5673 209.634 58.5652C209.784 56.5526 209.82 54.069 209.828 52.6235C209.831 51.9227 209.338 51.3239 208.65 51.1927C206.643 50.8101 202.539 50.0631 200.089 49.8608C197.155 49.6184 193.366 49.5892 191.484 49.5917C190.799 49.5927 190.21 50.0699 190.062 50.7393C189.73 52.2479 189.151 54.9229 188.82 56.7069C188.393 59.0053 188.453 61.511 188.486 63.2367C188.5 63.9912 189.058 64.6425 189.799 64.7835C191.883 65.1797 194.944 65.8807 198.204 66.2767Z" fill="var(--fill-0, #FF727B)"/>
<g id="symbol_fill">
<path d="M204.337 58.5827L195.826 62.6671L196.807 53.6275L204.337 58.5827Z" fill="var(--fill-0, white)"/>
<path d="M149.153 36.1912L130.952 46.9979L131.344 26.6103L149.153 36.1912Z" fill="var(--fill-0, white)"/>
<path d="M184.534 25.132L167.606 32.3986L168.618 15.7405L184.534 25.132Z" fill="var(--fill-0, white)"/>
</g>
<g id="stroke">
<path fill-rule="evenodd" clip-rule="evenodd" d="M161.905 55.3723C161.47 57.4331 161.521 62.1193 164.66 65.3637C167.976 64.1741 171.598 63.7913 175.209 64.991C178.364 66.0392 180.448 68.3031 181.776 71.1506C183.09 73.9674 183.689 77.3992 183.907 80.9438C184.343 88.0047 183.279 95.9964 182.906 101.205L180.471 101.032C180.861 95.597 181.894 87.9388 181.472 81.0931C181.304 78.3829 180.908 75.877 180.186 73.7463C178.26 73.5083 175.458 72.9983 172.596 72.1485C169.629 71.2677 166.468 69.9875 164.163 68.1829C159.757 70.1257 155.859 73.4048 152.898 77.1609C149.426 81.5645 146.669 86.4568 144.623 91.6637C142.938 91.0171 141.308 90.3031 139.785 89.3189C136.659 87.2996 134.043 84.0111 134.917 80.0677C135.724 76.4271 139.263 74.5312 142.758 74.4212C143.828 74.3876 144.899 74.4846 145.968 74.4338C147.988 74.3379 148.799 73.0972 149.222 71.2033C149.484 70.0261 149.383 69.1837 149.137 68.5668C148.89 67.947 148.455 67.4477 147.87 67.0291C146.643 66.1503 144.971 65.7588 143.633 65.4254L142.565 65.1588L142.72 64.0726C142.993 62.1698 142.934 60.7834 142.726 59.868C142.634 59.4612 142.435 58.4047 141.947 58.9555C141.604 59.3431 141.192 60.1365 140.93 61.442C140.466 63.754 139.289 65.0602 137.918 65.9592C136.77 66.7121 135.45 67.1581 134.308 67.9171C133.305 68.5834 131.387 69.802 129.736 72.268C128.093 74.7217 126.658 78.5025 126.841 84.354C127.128 93.5042 133.678 99.1533 136.862 100.799L135.739 102.959C132.058 101.057 124.724 94.7429 124.401 84.4297C124.203 78.1172 125.756 73.8286 127.705 70.9175C129.646 68.019 131.924 66.5762 132.953 65.8924C134.102 65.1293 135.425 64.6818 136.576 63.9271C137.489 63.3285 138.219 62.544 138.536 60.9646C138.846 59.4197 139.388 58.169 140.118 57.345C142.138 55.0636 144.562 56.9253 145.107 59.3319C145.348 60.393 145.414 61.7288 145.266 63.3264C146.469 63.645 148.023 64.1432 149.294 65.0527C150.165 65.676 150.949 66.5217 151.406 67.6699C151.865 68.8212 151.951 70.1718 151.604 71.7312C150.947 74.6767 149.211 76.7154 146.085 76.8639C145.002 76.9154 143.918 76.8188 142.835 76.8528C140.458 76.9276 137.864 78.0499 137.3 80.5919C136.654 83.5072 138.862 85.8237 141.112 87.2771C141.866 87.7643 142.626 88.1724 143.275 88.4829C144.638 85.3331 147.204 80.4459 150.979 75.6574C153.993 71.8343 157.897 68.5165 162.289 66.3698C158.98 62.3901 159.025 57.1925 159.516 54.8704L161.905 55.3723ZM174.437 67.2994C171.982 66.4839 169.462 66.5401 167.003 67.1821C168.794 68.2675 171.023 69.1434 173.292 69.8171C175.343 70.426 177.363 70.8492 179.004 71.1172C177.921 69.2827 176.444 67.9663 174.437 67.2994Z" fill="var(--fill-0, #6633F5)"/>
<path d="M159.152 79.7076C159.664 80.832 161.749 83.6409 165.622 84.7438C169.427 85.8272 172.362 84.2686 173.249 83.4831L174.87 85.3022C173.468 86.5441 169.69 88.4319 164.952 87.0826C160.281 85.7527 157.687 82.3779 156.929 80.7144L159.152 79.7076Z" fill="var(--fill-0, #6633F5)"/>
<path d="M173.016 76.1289C172.086 77.0553 171.166 78.0534 170.574 79.2347C170.053 80.2718 169.747 81.1884 169.539 82.3293L167.137 81.8942C167.387 80.5263 167.767 79.3897 168.391 78.1462C169.091 76.7507 170.183 75.5115 171.289 74.4093L173.016 76.1289Z" fill="var(--fill-0, #6633F5)"/>
<path d="M166.913 73.848C165.984 74.7744 165.064 75.7725 164.471 76.9538C163.951 77.991 163.645 78.9075 163.436 80.0484L161.035 79.6133C161.284 78.2454 161.665 77.1088 162.289 75.8653C162.998 74.4514 164.072 73.2388 165.186 72.1284L166.913 73.848Z" fill="var(--fill-0, #6633F5)"/>
</g>
</g>
</svg>
