<svg preserveAspectRatio="none" width="100%" height="100%" overflow="visible" style="display: block;" viewBox="0 0 20 20" fill="none" xmlns="http://www.w3.org/2000/svg">
<g id="Icon/Magnifying_Glass">
<path id="magnifying_glass" fill-rule="evenodd" clip-rule="evenodd" d="M9.09583 3.125C12.3958 3.125 15.0708 5.8 15.0708 9.09583C15.0708 12.3958 12.3958 15.0708 9.09583 15.0708C5.8 15.0708 3.125 12.3958 3.125 9.09583C3.125 5.8 5.8 3.125 9.09583 3.125ZM9.09583 1.45833C4.87917 1.45833 1.45833 4.87917 1.45833 9.09583C1.45833 13.3167 4.87917 16.7375 9.09583 16.7375C10.9083 16.7375 12.5667 16.1083 13.8792 15.0583L17.5887 18.764C17.7514 18.9266 18.0151 18.9265 18.1778 18.7639L18.7639 18.1778C18.9265 18.0151 18.9266 17.7514 18.764 17.5887L15.0583 13.8792C16.1083 12.5667 16.7375 10.9083 16.7375 9.09583C16.7375 4.87917 13.3167 1.45833 9.09583 1.45833Z" fill="var(--fill-0, black)"/>
</g>
</svg>
