<svg preserveAspectRatio="none" width="100%" height="100%" overflow="visible" style="display: block;" viewBox="0 0 20 20" fill="none" xmlns="http://www.w3.org/2000/svg">
<g id="Icon/Camera">
<g id="camera">
<path fill-rule="evenodd" clip-rule="evenodd" d="M14.1666 10C14.1666 12.3012 12.3011 14.1667 9.99995 14.1667C7.69877 14.1667 5.83329 12.3012 5.83329 10C5.83329 7.69881 7.69877 5.83333 9.99995 5.83333C12.3011 5.83333 14.1666 7.69881 14.1666 10ZM12.5 10C12.5 11.3807 11.3807 12.5 9.99995 12.5C8.61924 12.5 7.49995 11.3807 7.49995 10C7.49995 8.61929 8.61924 7.5 9.99995 7.5C11.3807 7.5 12.5 8.61929 12.5 10Z" fill="var(--fill-0, black)"/>
<path fill-rule="evenodd" clip-rule="evenodd" d="M0.904379 6.63555C1.23719 5.02698 2.5375 3.79645 4.16195 3.55278L5.07082 3.41645C5.43351 3.36205 5.77478 3.21075 6.05862 2.97851L6.48371 2.63071C6.87555 2.31012 7.07147 2.14982 7.28115 2.02C7.73244 1.74058 8.2379 1.56015 8.76411 1.49063C9.00861 1.45833 9.26175 1.45833 9.76802 1.45833H10.2319C10.7382 1.45833 10.9913 1.45833 11.2358 1.49063C11.762 1.56015 12.2675 1.74058 12.7188 2.02C12.9284 2.14982 13.1244 2.31011 13.5162 2.63069L13.9413 2.97851C14.2251 3.21075 14.5664 3.36205 14.9291 3.41645L15.838 3.55278C17.4624 3.79645 18.7627 5.02698 19.0955 6.63555C19.5552 8.85713 19.5765 11.1471 19.1585 13.3769L19.1028 13.6736C18.7671 15.4642 17.3311 16.8438 15.5285 17.1076L14.7496 17.2216C11.5999 17.6825 8.39998 17.6825 5.25035 17.2216L4.47142 17.1076C2.66883 16.8438 1.23282 15.4642 0.897086 13.6736L0.841448 13.3769C0.423365 11.1471 0.444742 8.85713 0.904379 6.63555ZM15.2872 15.4585L14.5082 15.5725C11.5186 16.01 8.48128 16.01 5.49169 15.5725L4.71275 15.4585C3.61458 15.2978 2.73974 14.4573 2.53521 13.3665L2.47957 13.0697C2.10148 11.0532 2.12081 8.9823 2.53648 6.97322C2.7278 6.0485 3.47532 5.34109 4.40919 5.20101L5.31806 5.06468C5.97747 4.96577 6.59795 4.69068 7.11402 4.26844L7.53911 3.92064C7.96429 3.57276 8.06357 3.49582 8.15852 3.43703C8.40923 3.2818 8.69005 3.18156 8.98239 3.14294C9.0931 3.12832 9.21866 3.125 9.76802 3.125H10.2319C10.7812 3.125 10.9068 3.12832 11.0175 3.14294C11.3099 3.18156 11.5907 3.2818 11.8414 3.43703C11.9363 3.49582 12.0356 3.57276 12.4608 3.92064L12.8859 4.26844C13.402 4.69068 14.0224 4.96577 14.6818 5.06468L15.5907 5.20101C16.5246 5.34109 17.2721 6.0485 17.4634 6.97322C17.8791 8.9823 17.8984 11.0532 17.5203 13.0697L17.4647 13.3664C17.2602 14.4573 16.3853 15.2978 15.2872 15.4585Z" fill="var(--fill-0, black)"/>
</g>
</g>
</svg>
