<svg preserveAspectRatio="none" width="100%" height="100%" overflow="visible" style="display: block;" viewBox="0 0 20 20" fill="none" xmlns="http://www.w3.org/2000/svg">
<g id="Icon/Person">
<path id="person" d="M9.99791 1.25C12.304 1.25 14.1681 3.11667 14.1681 5.41667C14.1681 7.71667 12.304 9.58333 9.99791 9.58333C7.69597 9.58333 5.82773 7.71667 5.82773 5.41667C5.82773 3.11667 7.69597 1.25 9.99791 1.25ZM9.99791 2.91667C8.61758 2.91667 7.4958 4.0375 7.4958 5.41667C7.4958 6.79583 8.61758 7.91667 9.99791 7.91667C11.3824 7.91667 12.5 6.79583 12.5 5.41667C12.5 4.0375 11.3824 2.91667 9.99791 2.91667ZM9.99791 10.8333C14.289 10.8333 16.9454 13.7458 17.0831 17.9167C17.0914 18.1458 16.9037 18.3333 16.6702 18.3333H15.8362C15.6068 18.3333 15.4233 18.1458 15.415 17.9167C15.2899 14.65 13.3716 12.5 9.99791 12.5C6.6284 12.5 4.71012 14.65 4.58501 17.9167C4.57667 18.1458 4.39318 18.3333 4.15965 18.3333H3.32561C3.09625 18.3333 2.90859 18.1458 2.91693 17.9167C3.05455 13.7458 5.71096 10.8333 9.99791 10.8333Z" fill="var(--fill-0, black)"/>
</g>
</svg>
