<svg preserveAspectRatio="none" width="100%" height="100%" overflow="visible" style="display: block;" viewBox="0 0 20 20" fill="none" xmlns="http://www.w3.org/2000/svg">
<g id="Icon/Inbox">
<g id="inbox">
<path d="M6.66667 8.33333C6.43655 8.33333 6.25 8.51988 6.25 8.75V9.58333C6.25 9.81345 6.43655 10 6.66667 10H13.3333C13.5635 10 13.75 9.81345 13.75 9.58333V8.75C13.75 8.51988 13.5635 8.33333 13.3333 8.33333H6.66667Z" fill="var(--fill-0, black)"/>
<path d="M17.3658 16.3488C17.9146 16.0691 18.3608 15.6229 18.6404 15.0741C18.9583 14.4502 18.9583 13.6335 18.9583 12V6.33333C18.9583 4.69985 18.9583 3.8831 18.6404 3.25919C18.3608 2.71039 17.9146 2.26419 17.3658 1.98456C16.7419 1.66667 15.9252 1.66667 14.2917 1.66667H5.70833C4.07485 1.66667 3.2581 1.66667 2.63419 1.98456C2.08539 2.26419 1.63919 2.71039 1.35956 3.25919C1.04167 3.8831 1.04167 4.69985 1.04167 6.33333V12C1.04167 13.6335 1.04167 14.4502 1.35956 15.0741C1.63919 15.6229 2.08539 16.0691 2.63419 16.3488C3.2581 16.6667 4.07485 16.6667 5.70833 16.6667H6.99704C7.05229 16.6667 7.10528 16.6886 7.14435 16.7277L9.11612 18.6994C9.60427 19.1876 10.3957 19.1876 10.8839 18.6994L12.8556 16.7277C12.8947 16.6886 12.9477 16.6667 13.003 16.6667H14.2917C15.9252 16.6667 16.7419 16.6667 17.3658 16.3488ZM2.70833 6.33333C2.70833 5.48909 2.70963 4.95614 2.74254 4.55339C2.77385 4.1701 2.82529 4.05369 2.84458 4.01585C2.96442 3.78064 3.15564 3.58942 3.39085 3.46958C3.42869 3.45029 3.5451 3.39885 3.92839 3.36754C4.33114 3.33463 4.86409 3.33333 5.70833 3.33333H14.2917C15.1359 3.33333 15.6689 3.33463 16.0716 3.36754C16.4549 3.39885 16.5713 3.45029 16.6092 3.46958C16.8444 3.58942 17.0356 3.78064 17.1554 4.01584C17.1747 4.05369 17.2261 4.1701 17.2575 4.55339C17.2904 4.95614 17.2917 5.48909 17.2917 6.33333V12C17.2917 12.8442 17.2904 13.3772 17.2575 13.7799C17.2261 14.1632 17.1747 14.2796 17.1554 14.3175C17.0356 14.5527 16.8444 14.7439 16.6092 14.8638C16.5713 14.883 16.4549 14.9345 16.0716 14.9658C15.6689 14.9987 15.1359 15 14.2917 15H13.003C12.5057 15 12.0288 15.1975 11.6771 15.5492L10 17.2263L8.32286 15.5492C7.97123 15.1975 7.49432 15 6.99704 15H5.70833C4.86409 15 4.33114 14.9987 3.92839 14.9658C3.5451 14.9345 3.42869 14.883 3.39085 14.8638C3.15564 14.7439 2.96442 14.5527 2.84458 14.3175C2.82529 14.2796 2.77385 14.1632 2.74254 13.7799C2.70963 13.3772 2.70833 12.8442 2.70833 12V6.33333Z" fill="var(--fill-0, black)"/>
</g>
</g>
</svg>
