<svg preserveAspectRatio="none" width="100%" height="100%" overflow="visible" style="display: block;" viewBox="0 0 20 20" fill="none" xmlns="http://www.w3.org/2000/svg">
<g id="Leading Icon">
<path id="Tint" d="M10.2322 1.45801C10.7382 1.45801 10.9917 1.45794 11.2361 1.49023C11.7621 1.55977 12.2674 1.74028 12.7185 2.01953C12.9282 2.14936 13.1246 2.31028 13.5164 2.63086L13.9412 2.97852C14.2249 3.21063 14.566 3.36154 14.9285 3.41602L15.8377 3.55273C17.4621 3.7964 18.7627 5.02718 19.0955 6.63574C19.5551 8.85726 19.5761 11.1472 19.158 13.377L19.1023 13.6738C18.7665 15.4643 17.3306 16.8436 15.5281 17.1074L14.7498 17.2217C11.6002 17.6826 8.39941 17.6826 5.24979 17.2217L4.47147 17.1074C2.66897 16.8436 1.23308 15.4643 0.897249 13.6738L0.841585 13.377C0.423517 11.1473 0.444493 8.85725 0.904085 6.63574C1.23689 5.02718 2.53744 3.7964 4.1619 3.55273L5.07108 3.41602C5.43357 3.36157 5.77466 3.21062 6.05838 2.97852L6.48319 2.63086C6.87502 2.31027 7.07136 2.14936 7.28104 2.01953C7.73227 1.74018 8.2383 1.55974 8.76444 1.49023C9.00879 1.458 9.26239 1.45801 9.76834 1.45801H10.2322ZM9.76834 3.125C9.21898 3.125 9.09292 3.12795 8.98221 3.14258C8.68988 3.1812 8.4087 3.28227 8.15799 3.4375C8.0632 3.49625 7.96326 3.57366 7.53885 3.9209L7.11405 4.26855C6.59804 4.69075 5.97748 4.96551 5.31815 5.06445L4.40897 5.20117C3.47517 5.3413 2.72723 6.04895 2.53592 6.97363C2.12037 8.98243 2.1013 11.0531 2.47928 13.0693L2.53494 13.3662C2.73948 14.4571 3.61451 15.2983 4.71268 15.459L5.49198 15.5723C8.48145 16.0097 11.5191 16.0097 14.5086 15.5723L15.2869 15.459C16.3851 15.2983 17.2601 14.4571 17.4646 13.3662L17.5203 13.0693C17.8983 11.0531 17.8792 8.98245 17.4637 6.97363C17.2723 6.04891 16.5245 5.34126 15.5906 5.20117L14.6814 5.06445C14.0221 4.9655 13.4015 4.69072 12.8855 4.26855L12.4607 3.9209C12.0362 3.57354 11.9364 3.49625 11.8416 3.4375C11.5909 3.28227 11.3097 3.1812 11.0174 3.14258C10.9067 3.12797 10.781 3.125 10.2322 3.125H9.76834ZM9.99979 5.83301C12.301 5.83301 14.1668 7.69881 14.1668 10C14.1668 12.3012 12.301 14.167 9.99979 14.167C7.69863 14.167 5.8328 12.3012 5.8328 10C5.8328 7.69884 7.69863 5.83304 9.99979 5.83301ZM9.99979 7.5C8.61911 7.50004 7.49979 8.61931 7.49979 10C7.49979 11.3807 8.61911 12.5 9.99979 12.5C11.3805 12.5 12.4998 11.3807 12.4998 10C12.4998 8.61929 11.3805 7.5 9.99979 7.5Z" fill="var(--fill-0, black)"/>
</g>
</svg>
