<svg preserveAspectRatio="none" width="100%" height="100%" overflow="visible" style="display: block;" viewBox="0 0 20 20" fill="none" xmlns="http://www.w3.org/2000/svg">
<g id="Leading Icon">
<path id="Tint" d="M9.99816 10.833C14.2891 10.8332 16.9455 13.7463 17.0831 17.917C17.0913 18.146 16.9035 18.333 16.67 18.333H15.8361C15.6068 18.333 15.4237 18.146 15.4152 17.917C15.2901 14.6504 13.3716 12.5001 9.99816 12.5C6.62865 12.5 4.71018 14.6503 4.58508 17.917C4.57658 18.146 4.39272 18.333 4.1593 18.333H3.32531C3.09615 18.3329 2.90895 18.1459 2.91711 17.917C3.05472 13.7462 5.71121 10.833 9.99816 10.833ZM9.99816 1.25C12.3041 1.25019 14.1681 3.11711 14.1681 5.41699C14.1679 7.71673 12.304 9.58282 9.99816 9.58301C7.69633 9.58301 5.82744 7.71684 5.82726 5.41699C5.82726 3.11699 7.69622 1.25 9.99816 1.25ZM9.99816 2.91699C8.61783 2.91699 7.49523 4.03783 7.49523 5.41699C7.49541 6.79601 8.61794 7.91699 9.99816 7.91699C11.3824 7.91681 12.4999 6.7959 12.5001 5.41699C12.5001 4.03794 11.3825 2.91718 9.99816 2.91699Z" fill="var(--fill-0, black)"/>
</g>
</svg>
