<svg preserveAspectRatio="none" width="100%" height="100%" overflow="visible" style="display: block;" viewBox="0 0 20 20" fill="none" xmlns="http://www.w3.org/2000/svg">
<g id="Leading Icon">
<path id="Tint" d="M14.2919 1.66699C15.9252 1.66699 16.7422 1.6665 17.3661 1.98438C17.9147 2.26397 18.3609 2.71018 18.6405 3.25879C18.9584 3.88266 18.9579 4.69974 18.9579 6.33301V12C18.9579 13.6335 18.9584 14.4503 18.6405 15.0742C18.361 15.6229 17.9147 16.069 17.3661 16.3486C16.7422 16.6665 15.9252 16.667 14.2919 16.667H13.0028C12.9476 16.667 12.8944 16.6885 12.8554 16.7275L10.8837 18.6992C10.3955 19.1874 9.60427 19.1874 9.11611 18.6992L7.14443 16.7275C7.10537 16.6885 7.05221 16.667 6.99697 16.667H5.70791C4.07464 16.667 3.25756 16.6665 2.63369 16.3486C2.08506 16.069 1.63884 15.6229 1.35928 15.0742C1.04139 14.4503 1.04189 13.6335 1.04189 12V6.33301C1.04189 4.69974 1.0414 3.88266 1.35928 3.25879C1.63887 2.71018 2.08508 2.26397 2.63369 1.98438C3.25756 1.6665 4.07464 1.66699 5.70791 1.66699H14.2919ZM5.70791 3.33301C4.8641 3.33301 4.33127 3.33431 3.92861 3.36719C3.54532 3.3985 3.42837 3.45045 3.39053 3.46973C3.15551 3.58954 2.96444 3.78061 2.84463 4.01562C2.82535 4.05347 2.77341 4.17042 2.74209 4.55371C2.70922 4.95637 2.70791 5.48919 2.70791 6.33301V12C2.70791 12.8442 2.70918 13.3775 2.74209 13.7803C2.7734 14.1633 2.82534 14.2795 2.84463 14.3174C2.96441 14.5525 3.15549 14.7434 3.39053 14.8633C3.42837 14.8826 3.54532 14.9345 3.92861 14.9658C4.33127 14.9987 4.86408 15 5.70791 15H6.99697C7.49424 15 7.97152 15.1972 8.32314 15.5488L9.9999 17.2266L11.6767 15.5488C12.0283 15.1972 12.5056 15 13.0028 15H14.2919C15.1357 15 15.6685 14.9987 16.0712 14.9658C16.4545 14.9345 16.5714 14.8826 16.6093 14.8633C16.8443 14.7434 17.0354 14.5525 17.1552 14.3174C17.1745 14.2795 17.2264 14.1632 17.2577 13.7803C17.2906 13.3775 17.2919 12.8442 17.2919 12V6.33301C17.2919 5.48919 17.2906 4.95637 17.2577 4.55371C17.2264 4.17042 17.1745 4.05347 17.1552 4.01562C17.0354 3.78061 16.8443 3.58954 16.6093 3.46973C16.5714 3.45045 16.4545 3.3985 16.0712 3.36719C15.6685 3.33431 15.1357 3.33301 14.2919 3.33301H5.70791ZM13.3329 8.33301C13.563 8.33301 13.7499 8.51988 13.7499 8.75V9.58301C13.7499 9.81313 13.563 10 13.3329 10H6.66689C6.43678 10 6.2499 9.81313 6.2499 9.58301V8.75C6.2499 8.51988 6.43678 8.33301 6.66689 8.33301H13.3329Z" fill="var(--fill-0, black)"/>
</g>
</svg>
