<svg preserveAspectRatio="none" width="100%" height="100%" overflow="visible" style="display: block;" viewBox="0 0 20 20" fill="none" xmlns="http://www.w3.org/2000/svg">
<g id="Leading Icon">
<path id="Tint" d="M9.09561 1.45801C13.3164 1.45801 16.7371 4.8791 16.7372 9.0957C16.7372 10.9081 16.1084 12.5665 15.0585 13.8789L18.7636 17.5889C18.9261 17.7516 18.9262 18.0151 18.7636 18.1777L18.1776 18.7637C18.015 18.9263 17.7515 18.9262 17.5888 18.7637L13.8788 15.0586C12.5664 16.1085 10.908 16.7373 9.09561 16.7373C4.879 16.7372 1.45791 13.3165 1.45791 9.0957C1.45798 4.87914 4.87904 1.45808 9.09561 1.45801ZM9.09561 3.125C5.79988 3.12507 3.12497 5.79997 3.1249 9.0957C3.1249 12.3957 5.79983 15.0712 9.09561 15.0713C12.3956 15.0713 15.0712 12.3957 15.0712 9.0957C15.0711 5.79993 12.3956 3.125 9.09561 3.125Z" fill="var(--fill-0, black)"/>
</g>
</svg>
