<svg preserveAspectRatio="none" width="100%" height="100%" overflow="visible" style="display: block;" viewBox="0 0 20 20" fill="none" xmlns="http://www.w3.org/2000/svg">
<g id="Loading / Spinner">
<path id="Union" d="M6.93848 2.60938C8.56541 1.93548 10.3693 1.81675 12.0703 2.27246C13.7713 2.72825 15.2746 3.73278 16.3467 5.12988C17.4188 6.52704 18 8.23893 18 10C18 10.6904 17.4404 11.25 16.75 11.25C16.0596 11.25 15.5 10.6904 15.5 10C15.5 8.78926 15.1003 7.61191 14.3633 6.65137C13.6263 5.6911 12.593 5.00086 11.4238 4.6875C10.2544 4.37415 9.01405 4.45566 7.89551 4.91895C6.777 5.38225 5.84268 6.20157 5.2373 7.25C4.63196 8.29849 4.38888 9.51744 4.54688 10.7178C4.70491 11.9182 5.25521 13.0326 6.11133 13.8887C6.96745 14.7448 8.08185 15.2951 9.28223 15.4531C10.4826 15.6111 11.7015 15.368 12.75 14.7627C13.3478 14.4177 14.1129 14.6229 14.458 15.2207C14.803 15.8185 14.5976 16.5825 14 16.9277C12.4749 17.8082 10.702 18.1614 8.95605 17.9316C7.21005 17.7018 5.58804 16.9025 4.34277 15.6572C3.09751 14.412 2.29823 12.7899 2.06836 11.0439C1.83857 9.29803 2.19178 7.52505 3.07227 6C3.95277 4.47503 5.31162 3.28329 6.93848 2.60938Z" fill="var(--fill-0, black)" fill-opacity="0.34"/>
</g>
</svg>
