<svg preserveAspectRatio="none" width="100%" height="100%" overflow="visible" style="display: block;" viewBox="0 0 20.1667 20.1668" fill="none" xmlns="http://www.w3.org/2000/svg">
<g id="tick_circle_green">
<circle id="Ellipse 131" cx="10.0833" cy="10.0835" r="10.0833" fill="white"/>
<path id="tick_circle_fill" d="M10.0833 20.1668C15.6522 20.1668 20.1667 15.6524 20.1667 10.0835C20.1667 4.51462 15.6522 0.000162758 10.0833 0.000162758C4.51446 0.000162758 0 4.51462 0 10.0835C0 15.6524 4.51446 20.1668 10.0833 20.1668ZM14.8476 6.11091C15.1203 6.28202 15.2005 6.64028 15.0348 6.91299L9.99233 14.9713C9.79449 15.2867 9.46831 15.4899 9.09935 15.5167C8.73574 15.5488 8.38282 15.4044 8.1422 15.1263L4.77879 11.2817C4.5649 11.0464 4.59164 10.6721 4.83227 10.4635L5.70921 9.6989C5.94449 9.49035 6.3081 9.51709 6.52199 9.75771L8.85872 12.426L13.0723 5.68313C13.2381 5.41042 13.5964 5.33022 13.8691 5.49598L14.8476 6.11091Z" fill="#0BE09B"/>
</g>
</svg>
