<svg preserveAspectRatio="none" width="100%" height="100%" overflow="visible" style="display: block;" viewBox="0 0 22 22" fill="none" xmlns="http://www.w3.org/2000/svg">
<g id="tick_circle_green">
<circle id="Ellipse 131" cx="11" cy="11" r="11" fill="var(--fill-0, white)"/>
<path id="tick_circle_fill" d="M11 22C17.0751 22 22 17.0751 22 11C22 4.92487 17.0751 0 11 0C4.92487 0 0 4.92487 0 11C0 17.0751 4.92487 22 11 22ZM16.1974 6.66627C16.4949 6.85294 16.5824 7.24377 16.4016 7.54127L10.9007 16.3321C10.6849 16.6763 10.3291 16.8979 9.92656 16.9271C9.5299 16.9621 9.1449 16.8046 8.8824 16.5013L5.21323 12.3071C4.9799 12.0504 5.00906 11.6421 5.27156 11.4146L6.22823 10.5804C6.4849 10.3529 6.88156 10.3821 7.1149 10.6446L9.66406 13.5554L14.2607 6.1996C14.4416 5.9021 14.8324 5.8146 15.1299 5.99544L16.1974 6.66627Z" fill="var(--fill-0, #00C39B)"/>
</g>
</svg>
