<svg preserveAspectRatio="none" width="100%" height="100%" overflow="visible" style="display: block;" viewBox="0 0 70.2577 80.0001" fill="none" xmlns="http://www.w3.org/2000/svg">
<g id="Group 1">
<path id="Vector" d="M15.4761 7.51219H11.7785L13.424 0.779289C13.4605 0.640243 13.4476 0.492869 13.3874 0.362246C13.3272 0.231622 13.2234 0.125826 13.0937 0.0628497C12.9641 -0.000126152 12.8165 -0.0163885 12.6762 0.0168364C12.5358 0.0500612 12.4113 0.130715 12.3239 0.245076L4.25393 10.501C4.2033 10.5656 4.16599 10.6396 4.14416 10.7186C4.12233 10.7976 4.11642 10.8802 4.12673 10.9615C4.13703 11.0428 4.16338 11.1213 4.20425 11.1925C4.24512 11.2636 4.29969 11.326 4.36485 11.376C4.47075 11.4585 4.60025 11.5053 4.7346 11.5096H8.25656L6.60651 17.9569C6.58651 18.0371 6.58262 18.1204 6.59505 18.202C6.60749 18.2837 6.63602 18.3621 6.67898 18.4327C6.72194 18.5033 6.77848 18.5648 6.84536 18.6135C6.91225 18.6623 6.98815 18.6974 7.06871 18.7168C7.18383 18.7453 7.30467 18.7409 7.41744 18.7043C7.53021 18.6676 7.63038 18.6002 7.70654 18.5096L15.9615 8.54837C16.0151 8.48621 16.0559 8.41408 16.0815 8.33613C16.1071 8.25818 16.117 8.17596 16.1105 8.0942C16.1041 8.01244 16.0815 7.93275 16.044 7.85973C16.0065 7.78672 15.9549 7.72182 15.8921 7.66877C15.7782 7.56629 15.6296 7.51038 15.4761 7.51219Z" fill="var(--fill-0, black)"/>
<path id="Vector_2" d="M27.349 31.7163V28.5265C26.2722 28.3753 25.1866 28.2965 24.0993 28.2908C18.9733 28.2892 13.9804 29.9298 9.84645 32.9739C5.71254 36.018 2.65315 40.307 1.11307 45.2173C-0.427009 50.1276 -0.367475 55.4033 1.28298 60.2773C2.93344 65.1513 6.08879 69.3696 10.2903 72.3189C7.1498 68.9032 5.05559 64.6513 4.25822 60.0716C3.46086 55.4919 3.99412 50.7785 5.79418 46.4953C7.59423 42.212 10.5848 38.5403 14.4083 35.9193C18.2317 33.2983 22.7261 31.8391 27.3537 31.7163H27.349Z" fill="var(--fill-0, #25F4EE)"/>
<path id="Vector_3" d="M27.8651 66.8853C30.739 66.8702 33.4969 65.753 35.5674 63.7652C37.6379 61.7774 38.8622 59.0713 38.9866 56.2077V3.79122L48.5246 3.71294C48.3194 2.61205 48.2174 1.4945 48.2199 0.374749H35.0809V52.8649C35.0166 54.7256 34.4792 56.5394 33.5192 58.1362C32.5592 59.7329 31.208 61.0601 29.5926 61.9931C27.9773 62.9262 26.1506 63.4345 24.2842 63.4703C22.4178 63.5062 20.5729 63.0684 18.9227 62.198C19.9354 63.6289 21.2739 64.7999 22.8285 65.6147C24.383 66.4296 26.1091 66.865 27.8651 66.8853V66.8853Z" fill="var(--fill-0, #25F4EE)"/>
<path id="Vector_4" d="M66.5106 21.5455V18.5224C62.9842 18.5247 59.5336 17.4919 56.5808 15.5502C59.1624 18.5748 62.6455 20.6778 66.5106 21.5455Z" fill="var(--fill-0, #25F4EE)"/>
<path id="Vector_5" d="M56.5809 15.5503C53.6668 12.2808 52.0617 8.08728 52.0629 3.74702H48.5247C48.9818 6.14621 49.9316 8.42947 51.3164 10.4584C52.7012 12.4873 54.4922 14.2196 56.5809 15.5503V15.5503Z" fill="var(--fill-0, #FE2C55)"/>
<path id="Vector_6" d="M24.0697 41.4274C21.6199 41.4256 19.2403 42.2506 17.3117 43.7704C15.3831 45.2901 14.0169 47.4167 13.4317 49.81C12.8465 52.2033 13.0761 54.7249 14.0838 56.9713C15.0915 59.2178 16.819 61.0593 18.99 62.2012C17.8084 60.5579 17.1015 58.6179 16.9473 56.5956C16.7931 54.5733 17.1976 52.5476 18.1162 50.7421C19.0348 48.9367 20.4317 47.422 22.1525 46.3653C23.8733 45.3086 25.8509 44.7512 27.8669 44.7545C28.9642 44.7566 30.0547 44.9275 31.1007 45.2614V31.8976C30.0294 31.7445 28.9489 31.666 27.8669 31.6626H27.3035V41.9389C26.2576 41.6041 25.1672 41.4317 24.0697 41.4274V41.4274Z" fill="var(--fill-0, #FE2C55)"/>
<path id="Vector_7" d="M66.4419 21.5457V31.7463C59.906 31.7539 53.5335 29.7 48.2281 25.8759V52.5347C48.2302 56.9525 47.0218 61.2861 44.7345 65.0632C42.4473 68.8402 39.1691 71.9158 35.2571 73.9546C31.3452 75.9934 26.9496 76.9172 22.5496 76.6254C18.1496 76.3335 13.914 74.8372 10.3045 72.2994C13.6005 75.8506 17.8877 78.3248 22.6075 79.3997C27.3273 80.4745 32.2609 80.1001 36.7652 78.3253C41.2696 76.5505 45.1359 73.4575 47.8604 69.4495C50.5848 65.4414 52.0411 60.7042 52.0393 55.855V29.2054C57.347 33.0279 63.7209 35.0801 70.2577 35.0711V21.9562C68.9748 21.9563 67.6955 21.8188 66.4419 21.5457V21.5457Z" fill="var(--fill-0, #FE2C55)"/>
<path id="Vector_8" d="M48.2494 52.5152V25.8905C53.5686 29.7107 59.9578 31.7619 66.5106 31.7534V21.5659C62.643 20.7375 59.1491 18.6786 56.5541 15.6984C54.4788 14.351 52.6992 12.597 51.3232 10.5426C49.9473 8.48823 49.0035 6.17632 48.5493 3.74702H38.9435L38.9204 56.2503C38.8401 58.5435 38.0426 60.7541 36.6399 62.572C35.2371 64.3898 33.2995 65.7237 31.0988 66.3866C28.8981 67.0494 26.5447 67.008 24.3688 66.268C22.1929 65.528 20.3036 64.1266 18.966 62.2605C16.7793 61.1193 15.0392 59.2788 14.0242 57.0337C13.0092 54.7885 12.7779 52.2684 13.3673 49.8765C13.9568 47.4846 15.333 45.3592 17.2756 43.8403C19.2182 42.3215 21.6151 41.497 24.0827 41.4987C25.1879 41.5015 26.2863 41.6723 27.34 42.0053V31.7257C22.6845 31.8309 18.1589 33.278 14.3087 35.8926C10.4585 38.5071 7.44811 42.1776 5.64036 46.4614C3.8326 50.7452 3.30466 55.4595 4.12022 60.036C4.93578 64.6125 7.06001 68.8559 10.2368 72.2545C13.8548 74.789 18.1004 76.2834 22.5107 76.5749C26.921 76.8664 31.3269 75.9438 35.248 73.9076C39.1692 71.8714 42.4551 68.7998 44.7477 65.0276C47.0403 61.2554 48.2515 56.9273 48.2494 52.5152V52.5152Z" fill="var(--fill-0, black)"/>
</g>
</svg>
